<mxfile host="app.diagrams.net" agent="Mozilla/5.0 (Windows NT 10.0; Win64; x64) AppleWebKit/537.36 (KHTML, like Gecko) Chrome/140.0.0.0 Safari/537.36 Edg/140.0.0.0" version="24.7.17">
  <diagram name="Страница — 1" id="TN482sT865Hf7wEs1OIh">
    <mxGraphModel dx="1554" dy="861" grid="1" gridSize="10" guides="1" tooltips="1" connect="1" arrows="1" fold="1" page="1" pageScale="1" pageWidth="827" pageHeight="1169" math="0" shadow="0">
      <root>
        <mxCell id="0" />
        <mxCell id="1" parent="0" />
        <mxCell id="tGi4q9OkwVDirGuV4HHD-10" style="edgeStyle=orthogonalEdgeStyle;rounded=0;orthogonalLoop=1;jettySize=auto;html=1;entryX=0.5;entryY=0;entryDx=0;entryDy=0;shadow=0;" edge="1" parent="1" source="tGi4q9OkwVDirGuV4HHD-1" target="tGi4q9OkwVDirGuV4HHD-2">
          <mxGeometry relative="1" as="geometry">
            <Array as="points">
              <mxPoint x="483" y="340" />
              <mxPoint x="417" y="340" />
            </Array>
          </mxGeometry>
        </mxCell>
        <mxCell id="tGi4q9OkwVDirGuV4HHD-11" style="edgeStyle=orthogonalEdgeStyle;rounded=0;orthogonalLoop=1;jettySize=auto;html=1;entryX=0.5;entryY=0;entryDx=0;entryDy=0;shadow=0;" edge="1" parent="1" source="tGi4q9OkwVDirGuV4HHD-1" target="tGi4q9OkwVDirGuV4HHD-3">
          <mxGeometry relative="1" as="geometry">
            <Array as="points">
              <mxPoint x="483" y="340" />
              <mxPoint x="300" y="340" />
            </Array>
          </mxGeometry>
        </mxCell>
        <mxCell id="tGi4q9OkwVDirGuV4HHD-12" style="edgeStyle=orthogonalEdgeStyle;rounded=0;orthogonalLoop=1;jettySize=auto;html=1;entryX=0.5;entryY=0;entryDx=0;entryDy=0;shadow=0;" edge="1" parent="1" source="tGi4q9OkwVDirGuV4HHD-1" target="tGi4q9OkwVDirGuV4HHD-4">
          <mxGeometry relative="1" as="geometry">
            <Array as="points">
              <mxPoint x="483" y="340" />
              <mxPoint x="177" y="340" />
            </Array>
          </mxGeometry>
        </mxCell>
        <mxCell id="tGi4q9OkwVDirGuV4HHD-13" style="edgeStyle=orthogonalEdgeStyle;rounded=0;orthogonalLoop=1;jettySize=auto;html=1;entryX=0.5;entryY=0;entryDx=0;entryDy=0;shadow=0;" edge="1" parent="1" source="tGi4q9OkwVDirGuV4HHD-1" target="tGi4q9OkwVDirGuV4HHD-6">
          <mxGeometry relative="1" as="geometry">
            <Array as="points">
              <mxPoint x="483" y="340" />
              <mxPoint x="540" y="340" />
            </Array>
          </mxGeometry>
        </mxCell>
        <mxCell id="tGi4q9OkwVDirGuV4HHD-14" style="edgeStyle=orthogonalEdgeStyle;rounded=0;orthogonalLoop=1;jettySize=auto;html=1;entryX=0.5;entryY=0;entryDx=0;entryDy=0;shadow=0;" edge="1" parent="1" source="tGi4q9OkwVDirGuV4HHD-1" target="tGi4q9OkwVDirGuV4HHD-5">
          <mxGeometry relative="1" as="geometry">
            <Array as="points">
              <mxPoint x="483" y="340" />
              <mxPoint x="660" y="340" />
            </Array>
          </mxGeometry>
        </mxCell>
        <mxCell id="tGi4q9OkwVDirGuV4HHD-75" style="edgeStyle=orthogonalEdgeStyle;rounded=0;orthogonalLoop=1;jettySize=auto;html=1;entryX=0.5;entryY=0;entryDx=0;entryDy=0;shadow=0;" edge="1" parent="1" source="tGi4q9OkwVDirGuV4HHD-1" target="tGi4q9OkwVDirGuV4HHD-74">
          <mxGeometry relative="1" as="geometry">
            <Array as="points">
              <mxPoint x="483" y="340" />
              <mxPoint x="780" y="340" />
            </Array>
          </mxGeometry>
        </mxCell>
        <mxCell id="tGi4q9OkwVDirGuV4HHD-1" value="Главная" style="rounded=1;whiteSpace=wrap;html=1;shadow=0;arcSize=50;fillColor=#dae8fc;strokeColor=#6c8ebf;" vertex="1" parent="1">
          <mxGeometry x="420" y="280" width="126" height="40" as="geometry" />
        </mxCell>
        <mxCell id="tGi4q9OkwVDirGuV4HHD-27" style="edgeStyle=orthogonalEdgeStyle;rounded=0;orthogonalLoop=1;jettySize=auto;html=1;entryX=0;entryY=0.5;entryDx=0;entryDy=0;shadow=0;" edge="1" parent="1" source="tGi4q9OkwVDirGuV4HHD-2" target="tGi4q9OkwVDirGuV4HHD-22">
          <mxGeometry relative="1" as="geometry">
            <Array as="points">
              <mxPoint x="417" y="430" />
              <mxPoint x="357" y="430" />
              <mxPoint x="357" y="460" />
            </Array>
          </mxGeometry>
        </mxCell>
        <mxCell id="tGi4q9OkwVDirGuV4HHD-2" value="Популярные игры" style="rounded=1;whiteSpace=wrap;html=1;shadow=0;fillColor=#dae8fc;strokeColor=#6c8ebf;" vertex="1" parent="1">
          <mxGeometry x="377" y="380" width="80" height="40" as="geometry" />
        </mxCell>
        <mxCell id="tGi4q9OkwVDirGuV4HHD-28" style="edgeStyle=orthogonalEdgeStyle;rounded=0;orthogonalLoop=1;jettySize=auto;html=1;entryX=0;entryY=0.5;entryDx=0;entryDy=0;shadow=0;" edge="1" parent="1" source="tGi4q9OkwVDirGuV4HHD-3" target="tGi4q9OkwVDirGuV4HHD-18">
          <mxGeometry relative="1" as="geometry">
            <Array as="points">
              <mxPoint x="300" y="430" />
              <mxPoint x="240" y="430" />
              <mxPoint x="240" y="450" />
            </Array>
          </mxGeometry>
        </mxCell>
        <mxCell id="tGi4q9OkwVDirGuV4HHD-33" style="edgeStyle=orthogonalEdgeStyle;rounded=0;orthogonalLoop=1;jettySize=auto;html=1;entryX=0;entryY=0.5;entryDx=0;entryDy=0;shadow=0;" edge="1" parent="1" source="tGi4q9OkwVDirGuV4HHD-3" target="tGi4q9OkwVDirGuV4HHD-19">
          <mxGeometry relative="1" as="geometry">
            <Array as="points">
              <mxPoint x="300" y="430" />
              <mxPoint x="240" y="430" />
              <mxPoint x="240" y="490" />
            </Array>
          </mxGeometry>
        </mxCell>
        <mxCell id="tGi4q9OkwVDirGuV4HHD-34" style="edgeStyle=orthogonalEdgeStyle;rounded=0;orthogonalLoop=1;jettySize=auto;html=1;entryX=0;entryY=0.5;entryDx=0;entryDy=0;shadow=0;" edge="1" parent="1" source="tGi4q9OkwVDirGuV4HHD-3" target="tGi4q9OkwVDirGuV4HHD-20">
          <mxGeometry relative="1" as="geometry">
            <Array as="points">
              <mxPoint x="300" y="430" />
              <mxPoint x="240" y="430" />
              <mxPoint x="240" y="530" />
            </Array>
          </mxGeometry>
        </mxCell>
        <mxCell id="tGi4q9OkwVDirGuV4HHD-35" style="edgeStyle=orthogonalEdgeStyle;rounded=0;orthogonalLoop=1;jettySize=auto;html=1;entryX=0;entryY=0.5;entryDx=0;entryDy=0;shadow=0;" edge="1" parent="1" source="tGi4q9OkwVDirGuV4HHD-3" target="tGi4q9OkwVDirGuV4HHD-21">
          <mxGeometry relative="1" as="geometry">
            <Array as="points">
              <mxPoint x="300" y="430" />
              <mxPoint x="240" y="430" />
              <mxPoint x="240" y="580" />
            </Array>
          </mxGeometry>
        </mxCell>
        <mxCell id="tGi4q9OkwVDirGuV4HHD-71" style="edgeStyle=orthogonalEdgeStyle;rounded=0;orthogonalLoop=1;jettySize=auto;html=1;entryX=0;entryY=0.5;entryDx=0;entryDy=0;shadow=0;" edge="1" parent="1" source="tGi4q9OkwVDirGuV4HHD-3" target="tGi4q9OkwVDirGuV4HHD-70">
          <mxGeometry relative="1" as="geometry">
            <Array as="points">
              <mxPoint x="300" y="430" />
              <mxPoint x="240" y="430" />
              <mxPoint x="240" y="630" />
            </Array>
          </mxGeometry>
        </mxCell>
        <mxCell id="tGi4q9OkwVDirGuV4HHD-3" value="Профиль" style="rounded=1;whiteSpace=wrap;html=1;shadow=0;fillColor=#dae8fc;strokeColor=#6c8ebf;" vertex="1" parent="1">
          <mxGeometry x="260" y="380" width="80" height="40" as="geometry" />
        </mxCell>
        <mxCell id="tGi4q9OkwVDirGuV4HHD-29" style="edgeStyle=orthogonalEdgeStyle;rounded=0;orthogonalLoop=1;jettySize=auto;html=1;entryX=0;entryY=0.5;entryDx=0;entryDy=0;shadow=0;" edge="1" parent="1" source="tGi4q9OkwVDirGuV4HHD-4" target="tGi4q9OkwVDirGuV4HHD-15">
          <mxGeometry relative="1" as="geometry">
            <Array as="points">
              <mxPoint x="177" y="430" />
              <mxPoint x="117" y="430" />
              <mxPoint x="117" y="450" />
            </Array>
          </mxGeometry>
        </mxCell>
        <mxCell id="tGi4q9OkwVDirGuV4HHD-30" style="edgeStyle=orthogonalEdgeStyle;rounded=0;orthogonalLoop=1;jettySize=auto;html=1;entryX=0;entryY=0.5;entryDx=0;entryDy=0;shadow=0;" edge="1" parent="1" source="tGi4q9OkwVDirGuV4HHD-4" target="tGi4q9OkwVDirGuV4HHD-17">
          <mxGeometry relative="1" as="geometry">
            <Array as="points">
              <mxPoint x="177" y="430" />
              <mxPoint x="117" y="430" />
              <mxPoint x="117" y="490" />
            </Array>
          </mxGeometry>
        </mxCell>
        <mxCell id="tGi4q9OkwVDirGuV4HHD-32" style="edgeStyle=orthogonalEdgeStyle;rounded=0;orthogonalLoop=1;jettySize=auto;html=1;entryX=0;entryY=0.5;entryDx=0;entryDy=0;shadow=0;" edge="1" parent="1" source="tGi4q9OkwVDirGuV4HHD-4" target="tGi4q9OkwVDirGuV4HHD-16">
          <mxGeometry relative="1" as="geometry">
            <Array as="points">
              <mxPoint x="177" y="430" />
              <mxPoint x="117" y="430" />
              <mxPoint x="117" y="530" />
            </Array>
          </mxGeometry>
        </mxCell>
        <mxCell id="tGi4q9OkwVDirGuV4HHD-97" style="edgeStyle=orthogonalEdgeStyle;rounded=0;orthogonalLoop=1;jettySize=auto;html=1;entryX=0;entryY=0.5;entryDx=0;entryDy=0;" edge="1" parent="1" source="tGi4q9OkwVDirGuV4HHD-4" target="tGi4q9OkwVDirGuV4HHD-96">
          <mxGeometry relative="1" as="geometry">
            <Array as="points">
              <mxPoint x="177" y="430" />
              <mxPoint x="117" y="430" />
              <mxPoint x="117" y="570" />
            </Array>
          </mxGeometry>
        </mxCell>
        <mxCell id="tGi4q9OkwVDirGuV4HHD-99" style="edgeStyle=orthogonalEdgeStyle;rounded=0;orthogonalLoop=1;jettySize=auto;html=1;entryX=0;entryY=0.5;entryDx=0;entryDy=0;" edge="1" parent="1" source="tGi4q9OkwVDirGuV4HHD-4" target="tGi4q9OkwVDirGuV4HHD-98">
          <mxGeometry relative="1" as="geometry">
            <Array as="points">
              <mxPoint x="177" y="430" />
              <mxPoint x="117" y="430" />
              <mxPoint x="117" y="610" />
            </Array>
          </mxGeometry>
        </mxCell>
        <mxCell id="tGi4q9OkwVDirGuV4HHD-4" value="Вход/Регестрация" style="rounded=1;whiteSpace=wrap;html=1;shadow=0;fillColor=#dae8fc;strokeColor=#6c8ebf;" vertex="1" parent="1">
          <mxGeometry x="137" y="380" width="80" height="40" as="geometry" />
        </mxCell>
        <mxCell id="tGi4q9OkwVDirGuV4HHD-42" style="edgeStyle=orthogonalEdgeStyle;rounded=0;orthogonalLoop=1;jettySize=auto;html=1;entryX=0;entryY=0.5;entryDx=0;entryDy=0;shadow=0;" edge="1" parent="1" source="tGi4q9OkwVDirGuV4HHD-5" target="tGi4q9OkwVDirGuV4HHD-41">
          <mxGeometry relative="1" as="geometry">
            <Array as="points">
              <mxPoint x="660" y="430" />
              <mxPoint x="600" y="430" />
              <mxPoint x="600" y="450" />
            </Array>
          </mxGeometry>
        </mxCell>
        <mxCell id="tGi4q9OkwVDirGuV4HHD-43" style="edgeStyle=orthogonalEdgeStyle;rounded=0;orthogonalLoop=1;jettySize=auto;html=1;entryX=0;entryY=0.5;entryDx=0;entryDy=0;shadow=0;" edge="1" parent="1" source="tGi4q9OkwVDirGuV4HHD-5" target="tGi4q9OkwVDirGuV4HHD-40">
          <mxGeometry relative="1" as="geometry">
            <Array as="points">
              <mxPoint x="660" y="430" />
              <mxPoint x="600" y="430" />
              <mxPoint x="600" y="490" />
            </Array>
          </mxGeometry>
        </mxCell>
        <mxCell id="tGi4q9OkwVDirGuV4HHD-44" style="edgeStyle=orthogonalEdgeStyle;rounded=0;orthogonalLoop=1;jettySize=auto;html=1;entryX=0;entryY=0.5;entryDx=0;entryDy=0;shadow=0;" edge="1" parent="1" source="tGi4q9OkwVDirGuV4HHD-5" target="tGi4q9OkwVDirGuV4HHD-39">
          <mxGeometry relative="1" as="geometry">
            <Array as="points">
              <mxPoint x="660" y="430" />
              <mxPoint x="600" y="430" />
              <mxPoint x="600" y="530" />
            </Array>
          </mxGeometry>
        </mxCell>
        <mxCell id="tGi4q9OkwVDirGuV4HHD-46" style="edgeStyle=orthogonalEdgeStyle;rounded=0;orthogonalLoop=1;jettySize=auto;html=1;entryX=0;entryY=0.5;entryDx=0;entryDy=0;shadow=0;" edge="1" parent="1" source="tGi4q9OkwVDirGuV4HHD-5" target="tGi4q9OkwVDirGuV4HHD-45">
          <mxGeometry relative="1" as="geometry">
            <Array as="points">
              <mxPoint x="660" y="430" />
              <mxPoint x="600" y="430" />
              <mxPoint x="600" y="580" />
            </Array>
          </mxGeometry>
        </mxCell>
        <mxCell id="tGi4q9OkwVDirGuV4HHD-5" value="Настройки сайта" style="rounded=1;whiteSpace=wrap;html=1;shadow=0;fillColor=#dae8fc;strokeColor=#6c8ebf;" vertex="1" parent="1">
          <mxGeometry x="620" y="380" width="80" height="40" as="geometry" />
        </mxCell>
        <mxCell id="tGi4q9OkwVDirGuV4HHD-36" style="edgeStyle=orthogonalEdgeStyle;rounded=0;orthogonalLoop=1;jettySize=auto;html=1;entryX=0;entryY=0.5;entryDx=0;entryDy=0;shadow=0;" edge="1" parent="1" source="tGi4q9OkwVDirGuV4HHD-6" target="tGi4q9OkwVDirGuV4HHD-24">
          <mxGeometry relative="1" as="geometry">
            <Array as="points">
              <mxPoint x="540" y="430" />
              <mxPoint x="480" y="430" />
              <mxPoint x="480" y="460" />
            </Array>
          </mxGeometry>
        </mxCell>
        <mxCell id="tGi4q9OkwVDirGuV4HHD-37" style="edgeStyle=orthogonalEdgeStyle;rounded=0;orthogonalLoop=1;jettySize=auto;html=1;entryX=0;entryY=0.5;entryDx=0;entryDy=0;shadow=0;" edge="1" parent="1" source="tGi4q9OkwVDirGuV4HHD-6" target="tGi4q9OkwVDirGuV4HHD-26">
          <mxGeometry relative="1" as="geometry">
            <Array as="points">
              <mxPoint x="540" y="430" />
              <mxPoint x="480" y="430" />
              <mxPoint x="480" y="510" />
            </Array>
          </mxGeometry>
        </mxCell>
        <mxCell id="tGi4q9OkwVDirGuV4HHD-38" style="edgeStyle=orthogonalEdgeStyle;rounded=0;orthogonalLoop=1;jettySize=auto;html=1;entryX=0;entryY=0.5;entryDx=0;entryDy=0;shadow=0;" edge="1" parent="1" source="tGi4q9OkwVDirGuV4HHD-6" target="tGi4q9OkwVDirGuV4HHD-23">
          <mxGeometry relative="1" as="geometry">
            <Array as="points">
              <mxPoint x="540" y="430" />
              <mxPoint x="480" y="430" />
              <mxPoint x="480" y="550" />
            </Array>
          </mxGeometry>
        </mxCell>
        <mxCell id="tGi4q9OkwVDirGuV4HHD-6" value="Поиск" style="rounded=1;whiteSpace=wrap;html=1;shadow=0;fillColor=#dae8fc;strokeColor=#6c8ebf;" vertex="1" parent="1">
          <mxGeometry x="500" y="380" width="80" height="40" as="geometry" />
        </mxCell>
        <mxCell id="tGi4q9OkwVDirGuV4HHD-53" style="edgeStyle=orthogonalEdgeStyle;rounded=0;orthogonalLoop=1;jettySize=auto;html=1;entryX=0;entryY=0.5;entryDx=0;entryDy=0;shadow=0;" edge="1" parent="1" source="tGi4q9OkwVDirGuV4HHD-8" target="tGi4q9OkwVDirGuV4HHD-49">
          <mxGeometry relative="1" as="geometry">
            <Array as="points">
              <mxPoint x="417" y="650" />
              <mxPoint x="357" y="650" />
              <mxPoint x="357" y="670" />
            </Array>
          </mxGeometry>
        </mxCell>
        <mxCell id="tGi4q9OkwVDirGuV4HHD-54" style="edgeStyle=orthogonalEdgeStyle;rounded=0;orthogonalLoop=1;jettySize=auto;html=1;entryX=0;entryY=0.5;entryDx=0;entryDy=0;shadow=0;" edge="1" parent="1" source="tGi4q9OkwVDirGuV4HHD-8" target="tGi4q9OkwVDirGuV4HHD-50">
          <mxGeometry relative="1" as="geometry">
            <Array as="points">
              <mxPoint x="417" y="650" />
              <mxPoint x="357" y="650" />
              <mxPoint x="357" y="710" />
            </Array>
          </mxGeometry>
        </mxCell>
        <mxCell id="tGi4q9OkwVDirGuV4HHD-55" style="edgeStyle=orthogonalEdgeStyle;rounded=0;orthogonalLoop=1;jettySize=auto;html=1;entryX=0;entryY=0.5;entryDx=0;entryDy=0;shadow=0;" edge="1" parent="1" source="tGi4q9OkwVDirGuV4HHD-8" target="tGi4q9OkwVDirGuV4HHD-51">
          <mxGeometry relative="1" as="geometry">
            <Array as="points">
              <mxPoint x="417" y="650" />
              <mxPoint x="357" y="650" />
              <mxPoint x="357" y="750" />
            </Array>
          </mxGeometry>
        </mxCell>
        <mxCell id="tGi4q9OkwVDirGuV4HHD-60" style="edgeStyle=orthogonalEdgeStyle;rounded=0;orthogonalLoop=1;jettySize=auto;html=1;entryX=0;entryY=0.5;entryDx=0;entryDy=0;shadow=0;" edge="1" parent="1" source="tGi4q9OkwVDirGuV4HHD-8" target="tGi4q9OkwVDirGuV4HHD-56">
          <mxGeometry relative="1" as="geometry">
            <Array as="points">
              <mxPoint x="417" y="650" />
              <mxPoint x="357" y="650" />
              <mxPoint x="357" y="790" />
            </Array>
          </mxGeometry>
        </mxCell>
        <mxCell id="tGi4q9OkwVDirGuV4HHD-73" style="edgeStyle=orthogonalEdgeStyle;rounded=0;orthogonalLoop=1;jettySize=auto;html=1;entryX=0;entryY=0.5;entryDx=0;entryDy=0;shadow=0;" edge="1" parent="1" source="tGi4q9OkwVDirGuV4HHD-8" target="tGi4q9OkwVDirGuV4HHD-72">
          <mxGeometry relative="1" as="geometry">
            <Array as="points">
              <mxPoint x="417" y="650" />
              <mxPoint x="357" y="650" />
              <mxPoint x="357" y="830" />
            </Array>
          </mxGeometry>
        </mxCell>
        <mxCell id="tGi4q9OkwVDirGuV4HHD-84" style="edgeStyle=orthogonalEdgeStyle;rounded=0;orthogonalLoop=1;jettySize=auto;html=1;entryX=0;entryY=0.5;entryDx=0;entryDy=0;shadow=0;" edge="1" parent="1" source="tGi4q9OkwVDirGuV4HHD-8" target="tGi4q9OkwVDirGuV4HHD-83">
          <mxGeometry relative="1" as="geometry">
            <Array as="points">
              <mxPoint x="417" y="650" />
              <mxPoint x="357" y="650" />
              <mxPoint x="357" y="870" />
            </Array>
          </mxGeometry>
        </mxCell>
        <mxCell id="tGi4q9OkwVDirGuV4HHD-85" style="edgeStyle=orthogonalEdgeStyle;rounded=0;orthogonalLoop=1;jettySize=auto;html=1;entryX=0;entryY=0.5;entryDx=0;entryDy=0;shadow=0;" edge="1" parent="1" source="tGi4q9OkwVDirGuV4HHD-8" target="tGi4q9OkwVDirGuV4HHD-82">
          <mxGeometry relative="1" as="geometry">
            <Array as="points">
              <mxPoint x="417" y="650" />
              <mxPoint x="357" y="650" />
              <mxPoint x="357" y="910" />
            </Array>
          </mxGeometry>
        </mxCell>
        <mxCell id="tGi4q9OkwVDirGuV4HHD-95" style="edgeStyle=orthogonalEdgeStyle;rounded=0;orthogonalLoop=1;jettySize=auto;html=1;entryX=0;entryY=0.5;entryDx=0;entryDy=0;" edge="1" parent="1" source="tGi4q9OkwVDirGuV4HHD-8" target="tGi4q9OkwVDirGuV4HHD-94">
          <mxGeometry relative="1" as="geometry">
            <Array as="points">
              <mxPoint x="417" y="650" />
              <mxPoint x="357" y="650" />
              <mxPoint x="357" y="960" />
            </Array>
          </mxGeometry>
        </mxCell>
        <mxCell id="tGi4q9OkwVDirGuV4HHD-8" value="Профиль игры" style="rounded=1;whiteSpace=wrap;html=1;shadow=0;fillColor=#dae8fc;strokeColor=#6c8ebf;" vertex="1" parent="1">
          <mxGeometry x="377" y="600" width="80" height="40" as="geometry" />
        </mxCell>
        <mxCell id="tGi4q9OkwVDirGuV4HHD-65" style="edgeStyle=orthogonalEdgeStyle;rounded=0;orthogonalLoop=1;jettySize=auto;html=1;entryX=0;entryY=0.5;entryDx=0;entryDy=0;shadow=0;" edge="1" parent="1" source="tGi4q9OkwVDirGuV4HHD-9" target="tGi4q9OkwVDirGuV4HHD-62">
          <mxGeometry relative="1" as="geometry">
            <Array as="points">
              <mxPoint x="417" y="1050" />
              <mxPoint x="357" y="1050" />
              <mxPoint x="357" y="1070" />
            </Array>
          </mxGeometry>
        </mxCell>
        <mxCell id="tGi4q9OkwVDirGuV4HHD-66" style="edgeStyle=orthogonalEdgeStyle;rounded=0;orthogonalLoop=1;jettySize=auto;html=1;entryX=0;entryY=0.5;entryDx=0;entryDy=0;shadow=0;" edge="1" parent="1" source="tGi4q9OkwVDirGuV4HHD-9" target="tGi4q9OkwVDirGuV4HHD-63">
          <mxGeometry relative="1" as="geometry">
            <Array as="points">
              <mxPoint x="417" y="1050" />
              <mxPoint x="357" y="1050" />
              <mxPoint x="357" y="1110" />
            </Array>
          </mxGeometry>
        </mxCell>
        <mxCell id="tGi4q9OkwVDirGuV4HHD-67" style="edgeStyle=orthogonalEdgeStyle;rounded=0;orthogonalLoop=1;jettySize=auto;html=1;entryX=0;entryY=0.5;entryDx=0;entryDy=0;shadow=0;" edge="1" parent="1" source="tGi4q9OkwVDirGuV4HHD-9" target="tGi4q9OkwVDirGuV4HHD-64">
          <mxGeometry relative="1" as="geometry">
            <Array as="points">
              <mxPoint x="417" y="1050" />
              <mxPoint x="357" y="1050" />
              <mxPoint x="357" y="1150" />
            </Array>
          </mxGeometry>
        </mxCell>
        <mxCell id="tGi4q9OkwVDirGuV4HHD-9" value="Покупка" style="rounded=1;whiteSpace=wrap;html=1;shadow=0;fillColor=#dae8fc;strokeColor=#6c8ebf;" vertex="1" parent="1">
          <mxGeometry x="377" y="1000" width="80" height="40" as="geometry" />
        </mxCell>
        <mxCell id="tGi4q9OkwVDirGuV4HHD-15" value="Логин" style="rounded=0;whiteSpace=wrap;html=1;fontSize=10;shadow=0;" vertex="1" parent="1">
          <mxGeometry x="137" y="440" width="80" height="20" as="geometry" />
        </mxCell>
        <mxCell id="tGi4q9OkwVDirGuV4HHD-16" value="Пароль" style="rounded=0;whiteSpace=wrap;html=1;fontSize=10;shadow=0;" vertex="1" parent="1">
          <mxGeometry x="137" y="520" width="80" height="20" as="geometry" />
        </mxCell>
        <mxCell id="tGi4q9OkwVDirGuV4HHD-17" value="Почта" style="rounded=0;whiteSpace=wrap;html=1;fontSize=10;shadow=0;" vertex="1" parent="1">
          <mxGeometry x="137" y="480" width="80" height="20" as="geometry" />
        </mxCell>
        <mxCell id="tGi4q9OkwVDirGuV4HHD-18" value="Аватар" style="rounded=0;whiteSpace=wrap;html=1;fontSize=10;shadow=0;" vertex="1" parent="1">
          <mxGeometry x="260" y="440" width="80" height="20" as="geometry" />
        </mxCell>
        <mxCell id="tGi4q9OkwVDirGuV4HHD-19" value="Никнейм" style="rounded=0;whiteSpace=wrap;html=1;fontSize=10;shadow=0;" vertex="1" parent="1">
          <mxGeometry x="260" y="480" width="80" height="20" as="geometry" />
        </mxCell>
        <mxCell id="tGi4q9OkwVDirGuV4HHD-20" value="&lt;font style=&quot;font-size: 10px;&quot;&gt;Желаемые игры&lt;/font&gt;" style="rounded=0;whiteSpace=wrap;html=1;fontSize=10;shadow=0;" vertex="1" parent="1">
          <mxGeometry x="260" y="520" width="80" height="20" as="geometry" />
        </mxCell>
        <mxCell id="tGi4q9OkwVDirGuV4HHD-21" value="&lt;font style=&quot;font-size: 10px;&quot;&gt;Понравевшиеся игры&lt;/font&gt;" style="rounded=0;whiteSpace=wrap;html=1;fontSize=10;shadow=0;" vertex="1" parent="1">
          <mxGeometry x="260" y="560" width="80" height="40" as="geometry" />
        </mxCell>
        <mxCell id="tGi4q9OkwVDirGuV4HHD-47" style="edgeStyle=orthogonalEdgeStyle;rounded=0;orthogonalLoop=1;jettySize=auto;html=1;entryX=1;entryY=0.5;entryDx=0;entryDy=0;shadow=0;" edge="1" parent="1" source="tGi4q9OkwVDirGuV4HHD-22" target="tGi4q9OkwVDirGuV4HHD-8">
          <mxGeometry relative="1" as="geometry">
            <Array as="points">
              <mxPoint x="470" y="460" />
              <mxPoint x="470" y="620" />
            </Array>
          </mxGeometry>
        </mxCell>
        <mxCell id="tGi4q9OkwVDirGuV4HHD-22" value="&lt;font style=&quot;font-size: 10px;&quot;&gt;Топ игры за месяц&lt;/font&gt;" style="rounded=0;whiteSpace=wrap;html=1;fontSize=10;shadow=0;" vertex="1" parent="1">
          <mxGeometry x="377" y="440" width="80" height="40" as="geometry" />
        </mxCell>
        <mxCell id="tGi4q9OkwVDirGuV4HHD-48" style="edgeStyle=orthogonalEdgeStyle;rounded=0;orthogonalLoop=1;jettySize=auto;html=1;entryX=1;entryY=0.5;entryDx=0;entryDy=0;shadow=0;" edge="1" parent="1" source="tGi4q9OkwVDirGuV4HHD-23" target="tGi4q9OkwVDirGuV4HHD-8">
          <mxGeometry relative="1" as="geometry">
            <Array as="points">
              <mxPoint x="590" y="550" />
              <mxPoint x="590" y="620" />
            </Array>
          </mxGeometry>
        </mxCell>
        <mxCell id="tGi4q9OkwVDirGuV4HHD-23" value="&lt;font style=&quot;font-size: 10px;&quot;&gt;игра из поиска&lt;/font&gt;" style="rounded=0;whiteSpace=wrap;html=1;fontSize=10;shadow=0;" vertex="1" parent="1">
          <mxGeometry x="500" y="540" width="80" height="20" as="geometry" />
        </mxCell>
        <mxCell id="tGi4q9OkwVDirGuV4HHD-24" value="&lt;font style=&quot;font-size: 10px;&quot;&gt;Поиск по названию&lt;/font&gt;" style="rounded=0;whiteSpace=wrap;html=1;fontSize=10;shadow=0;" vertex="1" parent="1">
          <mxGeometry x="500" y="440" width="80" height="40" as="geometry" />
        </mxCell>
        <mxCell id="tGi4q9OkwVDirGuV4HHD-26" value="&lt;font style=&quot;font-size: 10px;&quot;&gt;Поле для тегов&lt;/font&gt;" style="rounded=0;whiteSpace=wrap;html=1;fontSize=10;shadow=0;" vertex="1" parent="1">
          <mxGeometry x="500" y="500" width="80" height="20" as="geometry" />
        </mxCell>
        <mxCell id="tGi4q9OkwVDirGuV4HHD-39" value="&lt;font style=&quot;font-size: 10px;&quot;&gt;Выбор темы&lt;/font&gt;" style="rounded=0;whiteSpace=wrap;html=1;fontSize=10;shadow=0;" vertex="1" parent="1">
          <mxGeometry x="620" y="520" width="80" height="20" as="geometry" />
        </mxCell>
        <mxCell id="tGi4q9OkwVDirGuV4HHD-40" value="&lt;font style=&quot;font-size: 10px;&quot;&gt;Менять аватар&lt;/font&gt;" style="rounded=0;whiteSpace=wrap;html=1;fontSize=10;shadow=0;" vertex="1" parent="1">
          <mxGeometry x="620" y="480" width="80" height="20" as="geometry" />
        </mxCell>
        <mxCell id="tGi4q9OkwVDirGuV4HHD-41" value="&lt;font style=&quot;font-size: 10px;&quot;&gt;Менять никнейм&lt;/font&gt;" style="rounded=0;whiteSpace=wrap;html=1;fontSize=10;shadow=0;" vertex="1" parent="1">
          <mxGeometry x="620" y="440" width="80" height="20" as="geometry" />
        </mxCell>
        <mxCell id="tGi4q9OkwVDirGuV4HHD-45" value="&lt;font style=&quot;font-size: 10px;&quot;&gt;Выход из аккаунта&lt;/font&gt;" style="rounded=0;whiteSpace=wrap;html=1;fontSize=10;shadow=0;" vertex="1" parent="1">
          <mxGeometry x="620" y="560" width="80" height="40" as="geometry" />
        </mxCell>
        <mxCell id="tGi4q9OkwVDirGuV4HHD-49" value="Название" style="rounded=0;whiteSpace=wrap;html=1;fontSize=10;shadow=0;" vertex="1" parent="1">
          <mxGeometry x="377" y="660" width="80" height="20" as="geometry" />
        </mxCell>
        <mxCell id="tGi4q9OkwVDirGuV4HHD-50" value="Описание" style="rounded=0;whiteSpace=wrap;html=1;fontSize=10;shadow=0;" vertex="1" parent="1">
          <mxGeometry x="377" y="700" width="80" height="20" as="geometry" />
        </mxCell>
        <mxCell id="tGi4q9OkwVDirGuV4HHD-51" value="Фотографии" style="rounded=0;whiteSpace=wrap;html=1;fontSize=10;shadow=0;" vertex="1" parent="1">
          <mxGeometry x="377" y="740" width="80" height="20" as="geometry" />
        </mxCell>
        <mxCell id="tGi4q9OkwVDirGuV4HHD-61" style="edgeStyle=orthogonalEdgeStyle;rounded=0;orthogonalLoop=1;jettySize=auto;html=1;entryX=1;entryY=0.5;entryDx=0;entryDy=0;shadow=0;" edge="1" parent="1" source="tGi4q9OkwVDirGuV4HHD-56" target="tGi4q9OkwVDirGuV4HHD-9">
          <mxGeometry relative="1" as="geometry">
            <Array as="points">
              <mxPoint x="480" y="790" />
              <mxPoint x="480" y="1020" />
            </Array>
          </mxGeometry>
        </mxCell>
        <mxCell id="tGi4q9OkwVDirGuV4HHD-56" value="Скачать/Купить" style="rounded=0;whiteSpace=wrap;html=1;fontSize=10;shadow=0;" vertex="1" parent="1">
          <mxGeometry x="377" y="780" width="80" height="20" as="geometry" />
        </mxCell>
        <mxCell id="tGi4q9OkwVDirGuV4HHD-62" value="Способ оплаты" style="rounded=0;whiteSpace=wrap;html=1;fontSize=10;shadow=0;" vertex="1" parent="1">
          <mxGeometry x="377" y="1060" width="80" height="20" as="geometry" />
        </mxCell>
        <mxCell id="tGi4q9OkwVDirGuV4HHD-63" value="Реквезиты" style="rounded=0;whiteSpace=wrap;html=1;fontSize=10;shadow=0;" vertex="1" parent="1">
          <mxGeometry x="377" y="1100" width="80" height="20" as="geometry" />
        </mxCell>
        <mxCell id="tGi4q9OkwVDirGuV4HHD-68" style="edgeStyle=orthogonalEdgeStyle;rounded=0;orthogonalLoop=1;jettySize=auto;html=1;entryX=1;entryY=0.5;entryDx=0;entryDy=0;shadow=0;" edge="1" parent="1" source="tGi4q9OkwVDirGuV4HHD-64" target="tGi4q9OkwVDirGuV4HHD-8">
          <mxGeometry relative="1" as="geometry">
            <Array as="points">
              <mxPoint x="590" y="1150" />
              <mxPoint x="590" y="620" />
            </Array>
          </mxGeometry>
        </mxCell>
        <mxCell id="tGi4q9OkwVDirGuV4HHD-64" value="Оплатить" style="rounded=0;whiteSpace=wrap;html=1;fontSize=10;shadow=0;" vertex="1" parent="1">
          <mxGeometry x="377" y="1140" width="80" height="20" as="geometry" />
        </mxCell>
        <mxCell id="tGi4q9OkwVDirGuV4HHD-70" value="&lt;font style=&quot;font-size: 10px;&quot;&gt;Пожаловаться&lt;/font&gt;" style="rounded=0;whiteSpace=wrap;html=1;fontSize=10;shadow=0;" vertex="1" parent="1">
          <mxGeometry x="260" y="620" width="80" height="20" as="geometry" />
        </mxCell>
        <mxCell id="tGi4q9OkwVDirGuV4HHD-72" value="&lt;font style=&quot;font-size: 10px;&quot;&gt;Пожаловаться&lt;/font&gt;" style="rounded=0;whiteSpace=wrap;html=1;fontSize=10;shadow=0;" vertex="1" parent="1">
          <mxGeometry x="377" y="820" width="80" height="20" as="geometry" />
        </mxCell>
        <mxCell id="tGi4q9OkwVDirGuV4HHD-79" style="edgeStyle=orthogonalEdgeStyle;rounded=0;orthogonalLoop=1;jettySize=auto;html=1;entryX=0;entryY=0.5;entryDx=0;entryDy=0;shadow=0;" edge="1" parent="1" source="tGi4q9OkwVDirGuV4HHD-74" target="tGi4q9OkwVDirGuV4HHD-76">
          <mxGeometry relative="1" as="geometry">
            <Array as="points">
              <mxPoint x="780" y="430" />
              <mxPoint x="720" y="430" />
              <mxPoint x="720" y="450" />
            </Array>
          </mxGeometry>
        </mxCell>
        <mxCell id="tGi4q9OkwVDirGuV4HHD-74" value="Жалобы (Модератор)" style="rounded=1;whiteSpace=wrap;html=1;shadow=0;fillColor=#dae8fc;strokeColor=#6c8ebf;" vertex="1" parent="1">
          <mxGeometry x="740" y="380" width="80" height="40" as="geometry" />
        </mxCell>
        <mxCell id="tGi4q9OkwVDirGuV4HHD-90" style="edgeStyle=orthogonalEdgeStyle;rounded=0;orthogonalLoop=1;jettySize=auto;html=1;entryX=1;entryY=0.5;entryDx=0;entryDy=0;" edge="1" parent="1" source="tGi4q9OkwVDirGuV4HHD-76" target="tGi4q9OkwVDirGuV4HHD-89">
          <mxGeometry relative="1" as="geometry">
            <Array as="points">
              <mxPoint x="840" y="450" />
              <mxPoint x="840" y="500" />
            </Array>
          </mxGeometry>
        </mxCell>
        <mxCell id="tGi4q9OkwVDirGuV4HHD-76" value="Список жалоб" style="rounded=0;whiteSpace=wrap;html=1;fontSize=10;shadow=0;" vertex="1" parent="1">
          <mxGeometry x="740" y="440" width="80" height="20" as="geometry" />
        </mxCell>
        <mxCell id="tGi4q9OkwVDirGuV4HHD-82" value="&lt;font style=&quot;font-size: 10px;&quot;&gt;Комментарии&lt;/font&gt;" style="rounded=0;whiteSpace=wrap;html=1;fontSize=10;shadow=0;" vertex="1" parent="1">
          <mxGeometry x="377" y="900" width="80" height="20" as="geometry" />
        </mxCell>
        <mxCell id="tGi4q9OkwVDirGuV4HHD-83" value="&lt;font style=&quot;font-size: 10px;&quot;&gt;Оценка&lt;/font&gt;" style="rounded=0;whiteSpace=wrap;html=1;fontSize=10;shadow=0;" vertex="1" parent="1">
          <mxGeometry x="377" y="860" width="80" height="20" as="geometry" />
        </mxCell>
        <mxCell id="tGi4q9OkwVDirGuV4HHD-86" value="Обьект жалобы" style="rounded=0;whiteSpace=wrap;html=1;fontSize=10;shadow=0;" vertex="1" parent="1">
          <mxGeometry x="740" y="540" width="80" height="20" as="geometry" />
        </mxCell>
        <mxCell id="tGi4q9OkwVDirGuV4HHD-87" value="Описание жалобы" style="rounded=0;whiteSpace=wrap;html=1;fontSize=10;shadow=0;" vertex="1" parent="1">
          <mxGeometry x="740" y="580" width="80" height="40" as="geometry" />
        </mxCell>
        <mxCell id="tGi4q9OkwVDirGuV4HHD-88" value="Вердикт" style="rounded=0;whiteSpace=wrap;html=1;fontSize=10;shadow=0;" vertex="1" parent="1">
          <mxGeometry x="740" y="640" width="80" height="20" as="geometry" />
        </mxCell>
        <mxCell id="tGi4q9OkwVDirGuV4HHD-91" style="edgeStyle=orthogonalEdgeStyle;rounded=0;orthogonalLoop=1;jettySize=auto;html=1;entryX=0;entryY=0.5;entryDx=0;entryDy=0;" edge="1" parent="1" source="tGi4q9OkwVDirGuV4HHD-89" target="tGi4q9OkwVDirGuV4HHD-86">
          <mxGeometry relative="1" as="geometry">
            <Array as="points">
              <mxPoint x="780" y="530" />
              <mxPoint x="720" y="530" />
              <mxPoint x="720" y="550" />
            </Array>
          </mxGeometry>
        </mxCell>
        <mxCell id="tGi4q9OkwVDirGuV4HHD-92" style="edgeStyle=orthogonalEdgeStyle;rounded=0;orthogonalLoop=1;jettySize=auto;html=1;entryX=0;entryY=0.5;entryDx=0;entryDy=0;" edge="1" parent="1" source="tGi4q9OkwVDirGuV4HHD-89" target="tGi4q9OkwVDirGuV4HHD-87">
          <mxGeometry relative="1" as="geometry">
            <Array as="points">
              <mxPoint x="780" y="530" />
              <mxPoint x="720" y="530" />
              <mxPoint x="720" y="600" />
            </Array>
          </mxGeometry>
        </mxCell>
        <mxCell id="tGi4q9OkwVDirGuV4HHD-93" style="edgeStyle=orthogonalEdgeStyle;rounded=0;orthogonalLoop=1;jettySize=auto;html=1;entryX=0;entryY=0.5;entryDx=0;entryDy=0;" edge="1" parent="1" source="tGi4q9OkwVDirGuV4HHD-89" target="tGi4q9OkwVDirGuV4HHD-88">
          <mxGeometry relative="1" as="geometry">
            <Array as="points">
              <mxPoint x="780" y="530" />
              <mxPoint x="720" y="530" />
              <mxPoint x="720" y="650" />
            </Array>
          </mxGeometry>
        </mxCell>
        <mxCell id="tGi4q9OkwVDirGuV4HHD-89" value="Жалоба (Модератор)" style="rounded=1;whiteSpace=wrap;html=1;shadow=0;fillColor=#dae8fc;strokeColor=#6c8ebf;" vertex="1" parent="1">
          <mxGeometry x="740" y="480" width="80" height="40" as="geometry" />
        </mxCell>
        <mxCell id="tGi4q9OkwVDirGuV4HHD-94" value="&lt;font style=&quot;font-size: 10px;&quot;&gt;Жалоба на комментарий&lt;/font&gt;" style="rounded=0;whiteSpace=wrap;html=1;fontSize=10;shadow=0;" vertex="1" parent="1">
          <mxGeometry x="377" y="940" width="80" height="40" as="geometry" />
        </mxCell>
        <mxCell id="tGi4q9OkwVDirGuV4HHD-96" value="Капча" style="rounded=0;whiteSpace=wrap;html=1;fontSize=10;shadow=0;" vertex="1" parent="1">
          <mxGeometry x="137" y="560" width="80" height="20" as="geometry" />
        </mxCell>
        <mxCell id="tGi4q9OkwVDirGuV4HHD-98" value="Подтвердить" style="rounded=0;whiteSpace=wrap;html=1;fontSize=10;shadow=0;" vertex="1" parent="1">
          <mxGeometry x="137" y="600" width="80" height="20" as="geometry" />
        </mxCell>
      </root>
    </mxGraphModel>
  </diagram>
</mxfile>
